<?xml version="1.0" encoding="UTF-8"?>
<svg xmlns="http://www.w3.org/2000/svg" version="1.1" viewBox="0 0 375.8 80.6">
  <defs>
    <style>
      .cls-1 {
        fill: #fff;
      }

      .cls-2, .cls-3 {
        fill: #295eb2;
      }

      .cls-3 {
        fill-rule: evenodd;
      }
    </style>
  </defs>
  <!-- Generator: Adobe Illustrator 28.7.1, SVG Export Plug-In . SVG Version: 1.2.0 Build 142)  -->
  <g>
    <g id="Layer_2">
      <g id="Layer_1-2">
        <g>
          <path class="cls-3" d="M44.4,3c-3.2-1.5-6.8-1.5-10,0L3.1,18.4c-4.1,2-4.1,7.8,0,9.8l31.4,15.4c3.2,1.5,6.8,1.5,10,0l31.4-15.4c4.1-2,4.1-7.8,0-9.8L44.4,3ZM3.2,36.2c.5-.2,1.1-.2,1.6,0l29.6,14.6c3.2,1.5,6.8,1.5,10,0l29.6-14.6c.5-.2,1.1-.2,1.6,0h.2c4.1,2.1,4.1,7.9,0,9.9l-31.4,15.4c-3.2,1.5-6.8,1.5-10,0L3.1,46.1c-4.1-2-4.1-7.8,0-9.8h.2c0,0,0,0,0,0ZM4.8,54.1c-.5-.2-1.1-.2-1.6,0h-.2c-4.1,2.1-4.1,7.9,0,9.9l31.4,15.4c3.2,1.6,6.8,1.6,10,0l31.4-15.4c4.1-2,4.1-7.8,0-9.8h-.2c-.5-.3-1.1-.3-1.6,0l-29.6,14.6c-3.2,1.6-6.8,1.6-10,0,0,0-29.6-14.6-29.6-14.6Z"/>
          <path class="cls-1" d="M50.6,19.1c-.1-.2-.4-.3-.7-.3h-9.9c0,0,1.7-9.6,1.7-9.6,0-.3-.3-.6-.7-.6-.3,0-.6,0-.7.3l-12,16.1c-.2.3-.1.6.2.8.1,0,.3,0,.4,0h9.7s-1.3,9.6-1.3,9.6c0,.3.3.6.7.6.3,0,.5,0,.7-.3l11.8-16.1c.1-.2.1-.4,0-.6h0Z"/>
        </g>
        <g>
          <path class="cls-2" d="M138.2,28.6l-7.2,7.3h-21.8v17.9h27.8l-7.3,7.3h-23l-7.4-7.3v-17.8l7.4-7.4h31.4Z"/>
          <path class="cls-2" d="M179.7,66.6l-9.8-5.5v-9.4h-19.7v9.3h-9.8v-25.2l7.4-7.3h24.6l7.4,7.3v30.8ZM169.9,44.6v-8.8h-19.7v8.8h19.7Z"/>
          <path class="cls-2" d="M224.1,28.6l-7.2,7.3h-21.8v17.9h27.8l-7.3,7.3h-23l-7.4-7.3v-17.8l7.4-7.4h31.4Z"/>
          <path class="cls-2" d="M266.9,61h-9.8v-12.9h-19.4v12.9h-9.8V28.6h9.8v13h19.4v-12.9l9.8-5.7v38.1h0Z"/>
          <path class="cls-2" d="M283.8,61h-9.8V28.6l9.8-5.7s0,38.1,0,38.1Z"/>
          <path class="cls-2" d="M329.7,28.6l-7.2,7.3h-21.8v5.7h24.2l-6.6,6.6h-17.7v18.5l-9.8-5.6V28.6h38.8Z"/>
          <path class="cls-2" d="M375.8,28.6l-17.1,17.1v20.9l-9.8-5.6v-15.3l-17.1-17.1h11.6l10.4,10.4,10.4-10.5h11.6,0Z"/>
        </g>
      </g>
    </g>
  </g>
</svg>